<svg xmlns="http://www.w3.org/2000/svg" width="876.769" height="861.611" viewBox="0 0 876.769 861.611">
  <g id="bg_deco_circletxt" transform="translate(759 -3165)" opacity="0.3">
    <g id="グループ_209" data-name="グループ 209" transform="translate(-759 3165)">
      <g id="グループ_208" data-name="グループ 208" transform="translate(0 0)">
        <path id="パス_91" data-name="パス 91" d="M719.2,395.321l-7.186,13.665-29.54,9.179-16.06-8.446L654.7,372.041l8.445-16.062,28.9-8.98,13.665,7.186-6.428,12.226-9.831-5.168-16,4.972-3.467,6.593,8.583,27.618,6.593,3.467,16.643-5.172,5.168-9.829Z" transform="translate(-367.446 -346.999)" fill="#fff"/>
        <path id="パス_92" data-name="パス 92" d="M747.682,359.56l4,27-8.555,11.526-24.062,3.561-11.527-8.555-3.995-27,8.555-11.529L736.155,351Zm-10.1,24.632-2.705-18.284L730.96,363l-10.419,1.543-2.906,3.915,2.705,18.283,3.916,2.907,10.419-1.542Z" transform="translate(-347.511 -345.364)" fill="#fff"/>
        <path id="パス_93" data-name="パス 93" d="M789.133,357.666l.07,38.979-13.6.024-.063-33.709-2.78-2.773-7.376.014-5.926,5.948.056,30.551-13.6.024-.087-47.6,12.065-.021.3,8.044,8.03-8.059,14.271-.027Z" transform="translate(-330.248 -346.156)" fill="#fff"/>
        <path id="パス_94" data-name="パス 94" d="M832.869,364.763l-5.612,38.565L813.8,401.37l4.853-33.353-2.347-3.149-7.3-1.062-6.73,5.02-4.4,30.226L784.428,397.1,791.28,350l11.939,1.738-.873,8,9.118-6.8,14.119,2.055Z" transform="translate(-314.492 -345.773)" fill="#fff"/>
        <path id="パス_95" data-name="パス 95" d="M874.085,378.505,869,395.674l-29.933-8.865-1.631,5.507,2.325,4.285,12.579,3.726,8.094-4.394,5.492,10.117L855.1,411.93l-24.883-7.37-6.849-12.616,7.752-26.167,12.616-6.849,23.5,6.962ZM858.572,383l1.44-4.867-2.326-4.285L847.4,370.8l-4.284,2.326-1.441,4.867Z" transform="translate(-298.599 -342.13)" fill="#fff"/>
        <path id="パス_96" data-name="パス 96" d="M898.082,421.535l-11.14,4.227L865.2,415.979l-5.092-13.42,11.2-24.889,13.42-5.091,21.307,9.586,4.228,11.142-11.394,4.323-2.978-7.849-9.431-4.243-4.558,1.729-7.583,16.853,1.729,4.558,9.867,4.439,7.849-2.978Z" transform="translate(-283.601 -336.557)" fill="#fff"/>
        <path id="パス_97" data-name="パス 97" d="M922.417,409.626l-11.08,18.253,1.35,5.526,8.1,4.919-5.764,9.5-14.734-8.945-3.313-13.55,13.814-22.755-8.922-5.416,5.761-9.5,9.578,5.813,10.894-13.886,9.167,5.567-9.093,14.979,11.543,7-5.765,9.5Z" transform="translate(-268.548 -333.697)" fill="#fff"/>
        <path id="パス_98" data-name="パス 98" d="M999.163,453.665l-15.083-14.009-35.577,38.3-10.523-9.774,35.578-38.3-15.082-14.01,8.732-9.4,40.686,37.795Z" transform="translate(-251.812 -322.722)" fill="#fff"/>
        <path id="パス_99" data-name="パス 99" d="M1017.371,494.084,986.752,518.2l-8.414-10.681,26.48-20.86.463-3.9-3.792-4.815-10.087-1.2-23.02,18.133L959.967,484.2l54.165-42.666,8.414,10.683-23.094,18.193,11.3,1.341,8.059,10.232Z" transform="translate(-242.837 -308.411)" fill="#fff"/>
        <path id="パス_100" data-name="パス 100" d="M1036.059,527.017l-15.513,8.939-15.586-27.047-4.977,2.868-1.268,4.708,6.549,11.366,8.893,2.393-2.988,11.114-11.9-3.2-12.955-22.483,3.728-13.862,23.645-13.624,13.861,3.727,12.239,21.239Zm-14.338-7.431,4.4-2.533,1.265-4.708-5.354-9.293-4.708-1.266-4.4,2.535Z" transform="translate(-232.082 -289.365)" fill="#fff"/>
        <path id="パス_101" data-name="パス 101" d="M1092.507,617.311l-67.375.743-3.67-13.192,38.095-22.42-44.2.462-3.719-13.378,58.094-34.141,4,14.392L1034.6,571.69l45.082-.507,3.053,10.978-38.875,22.834,44.826-1.431Z" transform="translate(-221.745 -270.099)" fill="#fff"/>
        <path id="パス_102" data-name="パス 102" d="M1064.635,650.225l-27.184,2.443-11.019-9.2-2.179-24.227,9.2-11.021,27.184-2.446,11.021,9.2,2.18,24.228Zm-24.015-11.494,18.409-1.656,3.125-3.743-.943-10.491-3.743-3.125-18.408,1.655-3.125,3.743.944,10.491Z" transform="translate(-216.595 -241.367)" fill="#fff"/>
        <path id="パス_103" data-name="パス 103" d="M1072.865,679.984l-12.727-.447.433-12.441-5.078-5.448-29.572-1.035.476-13.591,47.563,1.666-.421,12.06-8.915.07,8.59,9.211Z" transform="translate(-215.914 -224.53)" fill="#fff"/>
        <path id="パス_104" data-name="パス 104" d="M1033.809,697.205l-11.016-1.417,1.552-12.06,10.825-8.361,58.791,7.556-1.734,13.488-54.423-7-3.322,2.566Z" transform="translate(-217.192 -212.959)" fill="#fff"/>
        <path id="パス_105" data-name="パス 105" d="M1081.922,752.8l-66.969-16.414,2.873-11.719,7.882,1.635-5.9-9.726,3.261-13.3,12.277-7.442,23.345,5.723,9.83,16.211-4.1,16.743,20.741,5.082Zm-51.529-32.745,4.354,7.18,18.881,4.629,2.53-10.325-4.7-7.759-14.23-3.487-5.212,3.159Z" transform="translate(-220.392 -204.606)" fill="#fff"/>
        <path id="パス_106" data-name="パス 106" d="M1047.8,826.415,989.5,797.4l6.4-12.861,23.834,11.861,11.946-24-23.834-11.86,6.4-12.86,58.3,29.013-6.4,12.858-22.976-11.433-11.946,24,22.976,11.435Z" transform="translate(-230.78 -183.441)" fill="#fff"/>
        <path id="パス_107" data-name="パス 107" d="M995.312,845.878l-22.134-15.961-2.3-14.169L985.1,796.021l14.169-2.3,22.135,15.959,2.3,14.169-14.224,19.727ZM984.7,821.465l14.992,10.808,4.81-.78,6.161-8.544-.78-4.812-14.99-10.808-4.81.779-6.161,8.543Z" transform="translate(-238.382 -164.646)" fill="#fff"/>
        <path id="パス_108" data-name="パス 108" d="M959.8,841.978l-8.239-7.452,8.158-9.021,13.664-.687,43.967,39.766-9.12,10.085-40.7-36.809-4.194.21Z" transform="translate(-246.269 -151.953)" fill="#fff"/>
        <path id="パス_109" data-name="パス 109" d="M947.8,890.783l-18.09-20.436.876-14.33L948.8,839.9l14.329.875,18.088,20.436-.872,14.328-18.215,16.121Zm-4.986-26.15,12.25,13.838,4.866.3,7.888-6.98.3-4.867-12.248-13.84-4.867-.3-7.887,6.98Z" transform="translate(-255.188 -145.798)" fill="#fff"/>
        <path id="パス_110" data-name="パス 110" d="M912.957,880l-6.393-9.086,9.946-7,13.478,2.345,34.108,48.48-11.121,7.825L921.4,877.684l-4.136-.718Z" transform="translate(-264.636 -135.995)" fill="#fff"/>
        <path id="パス_111" data-name="パス 111" d="M929.131,912.936,917.453,919.9l-24.369-40.873,11.678-6.962Zm10.787,18.094-11.678,6.962-6.421-10.774,11.678-6.963Z" transform="translate(-270.139 -132.668)" fill="#fff"/>
        <path id="パス_112" data-name="パス 112" d="M872.645,941.551l-3.93-50.628,11.989-5.554L916.783,921.1l-13.12,6.079L881.284,903.25l3.873,32.5Z" transform="translate(-280.086 -127.236)" fill="#fff"/>
        <path id="パス_113" data-name="パス 113" d="M833.54,943.887,828.3,926.763l29.852-9.129-1.68-5.495-4.3-2.29-12.546,3.837-4.32,8.131-10.166-5.4,5.786-10.881,24.815-7.59,12.674,6.738,7.983,26.1-6.74,12.675-23.442,7.169Zm10.454-12.31,1.486,4.854,4.3,2.287,10.255-3.135,2.29-4.306-1.484-4.853Z" transform="translate(-297.875 -122.103)" fill="#fff"/>
        <path id="パス_114" data-name="パス 114" d="M803.875,963.144l-1.007-13.178-33.039,2.524-.977-12.794,33.039-2.523L800.869,923.8l-37.811,2.888L762.08,913.9l52.134-3.984,4.961,64.932-52.136,3.984-.977-12.795Z" transform="translate(-323.614 -117.218)" fill="#fff"/>
        <path id="パス_115" data-name="パス 115" d="M710.2,973.39l6.672-64.773,11.716,1.207,25.543,45.469,4.367-42.388,13.62,1.4-6.672,64.773-13.24-1.362L727.975,934.5l-4.151,40.292Z" transform="translate(-344.79 -117.747)" fill="#fff"/>
        <path id="パス_116" data-name="パス 116" d="M660.371,932.838l10.96-37.3,10.566,3.1-1.349,7.989,9.987-5.453,23.521,6.912,8.7,15.93L711.63,961.873,695.7,970.567l-30.414-8.935-7.138-13.077,12.126-6.62,5.061,9.273,17.457,5.13,6.538-3.568,8.153-27.75-3.57-6.538-14.978-4.4-9.629,5.255-1.593,5.422,13.783,4.049-3.564,12.127Z" transform="translate(-366.039 -123.087)" fill="#fff"/>
        <path id="パス_117" data-name="パス 117" d="M624.774,888.535,630.393,877l43.732,21.3-28.51,58.537L632.7,950.549l22.893-47Z" transform="translate(-379.663 -130.653)" fill="#fff"/>
        <path id="パス_118" data-name="パス 118" d="M593.229,908.952l22.076-32.7-9.683-6.535,7.18-10.636,31.272,21.112-7.18,10.636-9.683-6.538-22.078,32.7,9.684,6.538-7.18,10.635L576.366,913.05l7.179-10.635Z" transform="translate(-399.423 -137.968)" fill="#fff"/>
        <path id="パス_119" data-name="パス 119" d="M559.364,847.475,571.076,834.7l15.424-.669,26.328,24.138.628,14.476-13.8.6-.452-10.418-16.021-14.689-5.141.223-4.53,4.941.165,3.787,19.585,20.3.611,14.071-11.39,12.423-15.424.668-24.634-22.585-.6-13.934,13.8-.6.427,9.879,14.33,13.136,5.14-.222,4.209-4.588-.165-3.79-19.588-20.3Z" transform="translate(-413.524 -148.193)" fill="#fff"/>
        <path id="パス_120" data-name="パス 120" d="M502.151,831.285l51.839-39.4,8.691,11.434-21.192,16.109,16.225,21.347,21.193-16.11L587.6,836.1l-51.84,39.4-8.692-11.433,20.43-15.531L531.274,827.19l-20.43,15.53Z" transform="translate(-429.717 -165.398)" fill="#fff"/>
        <path id="パス_121" data-name="パス 121" d="M516.235,742.53l11.4-4.991,18.428,42.114-11.406,4.989-6.412-14.651-35.27,15.433,13.248,9.255L499.1,804.906l-18.8-13.1-5.91-13.512,48.255-21.113Z" transform="translate(-441.049 -187.581)" fill="#fff"/>
        <path id="パス_122" data-name="パス 122" d="M494.94,707.333l12.28-3.378,9.89,5.622,7.593,27.6L519.35,746.6l-10.242-5.821,3.949-6.947-3.887-14.124-2.591-1.473-4.339,1.193-1.136,2,4.065,19.836-5.017,8.831-12,3.3-9.888-5.622-7.01-25.48,5.086-8.948,10.242,5.821-3.681,6.475,3.3,12,2.59,1.473L492.852,738l1.136-2-4.067-19.835Z" transform="translate(-442.331 -201.29)" fill="#fff"/>
        <path id="パス_123" data-name="パス 123" d="M481.842,691.645l21.127-3.107,3.4-4.564-1.379-9.379,10.99-1.617,2.508,17.053-8.324,11.192L483.822,705.1l1.518,10.326-10.99,1.615-1.631-11.085-17.642.466-1.562-10.611,17.338-2.549L468.889,679.9l10.99-1.617Z" transform="translate(-449.57 -213.934)" fill="#fff"/>
        <path id="パス_124" data-name="パス 124" d="M507.338,611.159l10.238,11.554-1.869,30.872-13.583,12.032-39.378-2.384-12.032-13.582,1.828-30.2L464.1,609.213l9.16,10.339-8.313,7.362-1.011,16.727,4.938,5.575,28.862,1.746,5.575-4.937,1.053-17.4L497,620.318Z" transform="translate(-450.714 -239.963)" fill="#fff"/>
        <path id="パス_125" data-name="パス 125" d="M485.511,569.8l26.656,5.848,7.74,12.091-5.212,23.756-12.089,7.74-26.657-5.847-7.739-12.091,5.212-23.756Zm19.439,18.187-18.05-3.961-4.106,2.629-2.257,10.288,2.629,4.106,18.052,3.961,4.1-2.628,2.259-10.29Z" transform="translate(-443.573 -256.053)" fill="#fff"/>
        <path id="パス_126" data-name="パス 126" d="M500.187,530.2,536.67,543.9l-4.779,12.729L500.336,544.78l-3.577,1.622-2.591,6.9,3.468,7.645,28.6,10.742-4.781,12.729L476.9,567.686l4.243-11.3,7.631,2.56-4.7-10.357,5.016-13.358Z" transform="translate(-440.025 -272.217)" fill="#fff"/>
        <path id="パス_127" data-name="パス 127" d="M545.74,508.647l3.4,11.423-11.349,20.971-13.76,4.1-24-12.991-4.1-13.759,11.123-20.55,11.422-3.4,3.48,11.682-8.049,2.4-4.923,9.1,1.39,4.672,16.256,8.8,4.672-1.39,5.151-9.518-2.4-8.048Z" transform="translate(-432.256 -286.815)" fill="#fff"/>
        <path id="パス_128" data-name="パス 128" d="M544.324,462.609l14.462,10.561-18.414,25.212,4.64,3.388,4.818-.751,7.738-10.6-1.419-9.1,11.377-1.771,1.9,12.177-15.3,20.958L539.93,514.9l-22.04-16.1-2.21-14.185,14.459-19.8Zm-.983,16.121-4.1-2.992-4.818.751-6.326,8.66.751,4.819,4.1,2.992Z" transform="translate(-424.195 -299.807)" fill="#fff"/>
        <path id="パス_129" data-name="パス 129" d="M559.118,433.771l9.28,8.724-8.527,9.07.231,7.445,21.56,20.267-9.314,9.908-34.679-32.6,8.265-8.793,6.752,5.82-.39-12.588Z" transform="translate(-415.219 -311.579)" fill="#fff"/>
        <path id="パス_130" data-name="パス 130" d="M583.375,430.533l13.846,16.256,5.671.453,7.216-6.147,7.2,8.458-13.12,11.174-13.9-1.114-17.26-20.265-7.947,6.768-7.2-8.456,8.529-7.263-9.759-14.706,8.166-6.954,11.361,13.34,10.279-8.753,7.2,8.455Z" transform="translate(-407.472 -321.798)" fill="#fff"/>
      </g>
      <g id="グループ_371" data-name="グループ 371" transform="translate(-1894.671 1294.682) rotate(-28)">
        <path id="パス_448" data-name="パス 448" d="M2454.7-73.365c-7.848,2.049-9.229,3.711-10.93,13.159-1.7-9.448-3.084-11.11-10.932-13.159,7.848-2.049,9.229-3.711,10.932-13.159C2445.47-77.076,2446.851-75.414,2454.7-73.365Z" transform="translate(0 14.086)" fill="#fff"/>
        <path id="パス_449" data-name="パス 449" d="M2491.96-86.4c-17.867,4.667-21.01,8.45-24.887,29.959-3.876-21.509-7.02-25.292-24.886-29.959,17.867-4.667,21.01-8.45,24.886-29.957C2470.951-94.852,2474.094-91.069,2491.96-86.4Z" transform="translate(4.415 0)" fill="#fff"/>
      </g>
    </g>
    <g id="楕円形_205" data-name="楕円形 205" transform="translate(-678.8 3229.924)" fill="none" stroke="#fff" stroke-width="3">
      <circle cx="358.354" cy="358.354" r="358.354" stroke="none"/>
      <circle cx="358.354" cy="358.354" r="356.854" fill="none"/>
    </g>
    <g id="楕円形_206" data-name="楕円形 206" transform="translate(-660.978 3247.746)" fill="none" stroke="#fff" stroke-width="6">
      <circle cx="340.531" cy="340.531" r="340.531" stroke="none"/>
      <circle cx="340.531" cy="340.531" r="337.531" fill="none"/>
    </g>
  </g>
</svg>
