<svg xmlns="http://www.w3.org/2000/svg" xmlns:xlink="http://www.w3.org/1999/xlink" width="579" height="217" viewBox="0 0 579 217">
  <defs>
    <clipPath id="clip-path">
      <rect width="579" height="217" fill="none"/>
    </clipPath>
  </defs>
  <g id="bg_deco_cross" clip-path="url(#clip-path)">
    <g id="グループ_368" data-name="グループ 368" transform="translate(1137.779 400.445)">
      <path id="パス_446" data-name="パス 446" d="M-1137.779-386.945h27" fill="none" stroke="#fff" stroke-width="1"/>
      <path id="パス_447" data-name="パス 447" d="M-1137.779-386.945h27" transform="translate(-1511.224 737.335) rotate(90)" fill="none" stroke="#fff" stroke-width="1"/>
    </g>
    <g id="グループ_368-2" data-name="グループ 368" transform="translate(1206.779 400.445)">
      <path id="パス_446-2" data-name="パス 446" d="M-1137.779-386.945h27" fill="none" stroke="#fff" stroke-width="1"/>
      <path id="パス_447-2" data-name="パス 447" d="M-1137.779-386.945h27" transform="translate(-1511.224 737.335) rotate(90)" fill="none" stroke="#fff" stroke-width="1"/>
    </g>
    <g id="グループ_368-3" data-name="グループ 368" transform="translate(1275.779 400.445)">
      <path id="パス_446-3" data-name="パス 446" d="M-1137.779-386.945h27" fill="none" stroke="#fff" stroke-width="1"/>
      <path id="パス_447-3" data-name="パス 447" d="M-1137.779-386.945h27" transform="translate(-1511.224 737.335) rotate(90)" fill="none" stroke="#fff" stroke-width="1"/>
    </g>
    <g id="グループ_368-4" data-name="グループ 368" transform="translate(1344.779 400.445)">
      <path id="パス_446-4" data-name="パス 446" d="M-1137.779-386.945h27" fill="none" stroke="#fff" stroke-width="1"/>
      <path id="パス_447-4" data-name="パス 447" d="M-1137.779-386.945h27" transform="translate(-1511.224 737.335) rotate(90)" fill="none" stroke="#fff" stroke-width="1"/>
    </g>
    <g id="グループ_368-5" data-name="グループ 368" transform="translate(1413.779 400.445)">
      <path id="パス_446-5" data-name="パス 446" d="M-1137.779-386.945h27" fill="none" stroke="#fff" stroke-width="1"/>
      <path id="パス_447-5" data-name="パス 447" d="M-1137.779-386.945h27" transform="translate(-1511.224 737.335) rotate(90)" fill="none" stroke="#fff" stroke-width="1"/>
    </g>
    <g id="グループ_368-6" data-name="グループ 368" transform="translate(1482.779 400.445)">
      <path id="パス_446-6" data-name="パス 446" d="M-1137.779-386.945h27" fill="none" stroke="#fff" stroke-width="1"/>
      <path id="パス_447-6" data-name="パス 447" d="M-1137.779-386.945h27" transform="translate(-1511.224 737.335) rotate(90)" fill="none" stroke="#fff" stroke-width="1"/>
    </g>
    <g id="グループ_368-7" data-name="グループ 368" transform="translate(1551.779 400.445)">
      <path id="パス_446-7" data-name="パス 446" d="M-1137.779-386.945h27" fill="none" stroke="#fff" stroke-width="1"/>
      <path id="パス_447-7" data-name="パス 447" d="M-1137.779-386.945h27" transform="translate(-1511.224 737.335) rotate(90)" fill="none" stroke="#fff" stroke-width="1"/>
    </g>
    <g id="グループ_368-8" data-name="グループ 368" transform="translate(1620.779 400.445)">
      <path id="パス_446-8" data-name="パス 446" d="M-1137.779-386.945h27" fill="none" stroke="#fff" stroke-width="1"/>
      <path id="パス_447-8" data-name="パス 447" d="M-1137.779-386.945h27" transform="translate(-1511.224 737.335) rotate(90)" fill="none" stroke="#fff" stroke-width="1"/>
    </g>
    <g id="グループ_368-9" data-name="グループ 368" transform="translate(1689.779 400.445)">
      <path id="パス_446-9" data-name="パス 446" d="M-1137.779-386.945h27" fill="none" stroke="#fff" stroke-width="1"/>
      <path id="パス_447-9" data-name="パス 447" d="M-1137.779-386.945h27" transform="translate(-1511.224 737.335) rotate(90)" fill="none" stroke="#fff" stroke-width="1"/>
    </g>
    <g id="グループ_368-10" data-name="グループ 368" transform="translate(1137.779 438.445)">
      <path id="パス_446-10" data-name="パス 446" d="M-1137.779-386.945h27" fill="none" stroke="#fff" stroke-width="1"/>
      <path id="パス_447-10" data-name="パス 447" d="M-1137.779-386.945h27" transform="translate(-1511.224 737.335) rotate(90)" fill="none" stroke="#fff" stroke-width="1"/>
    </g>
    <g id="グループ_368-11" data-name="グループ 368" transform="translate(1206.779 438.445)">
      <path id="パス_446-11" data-name="パス 446" d="M-1137.779-386.945h27" fill="none" stroke="#fff" stroke-width="1"/>
      <path id="パス_447-11" data-name="パス 447" d="M-1137.779-386.945h27" transform="translate(-1511.224 737.335) rotate(90)" fill="none" stroke="#fff" stroke-width="1"/>
    </g>
    <g id="グループ_368-12" data-name="グループ 368" transform="translate(1275.779 438.445)">
      <path id="パス_446-12" data-name="パス 446" d="M-1137.779-386.945h27" fill="none" stroke="#fff" stroke-width="1"/>
      <path id="パス_447-12" data-name="パス 447" d="M-1137.779-386.945h27" transform="translate(-1511.224 737.335) rotate(90)" fill="none" stroke="#fff" stroke-width="1"/>
    </g>
    <g id="グループ_368-13" data-name="グループ 368" transform="translate(1344.779 438.445)">
      <path id="パス_446-13" data-name="パス 446" d="M-1137.779-386.945h27" fill="none" stroke="#fff" stroke-width="1"/>
      <path id="パス_447-13" data-name="パス 447" d="M-1137.779-386.945h27" transform="translate(-1511.224 737.335) rotate(90)" fill="none" stroke="#fff" stroke-width="1"/>
    </g>
    <g id="グループ_368-14" data-name="グループ 368" transform="translate(1413.779 438.445)">
      <path id="パス_446-14" data-name="パス 446" d="M-1137.779-386.945h27" fill="none" stroke="#fff" stroke-width="1"/>
      <path id="パス_447-14" data-name="パス 447" d="M-1137.779-386.945h27" transform="translate(-1511.224 737.335) rotate(90)" fill="none" stroke="#fff" stroke-width="1"/>
    </g>
    <g id="グループ_368-15" data-name="グループ 368" transform="translate(1482.779 438.445)">
      <path id="パス_446-15" data-name="パス 446" d="M-1137.779-386.945h27" fill="none" stroke="#fff" stroke-width="1"/>
      <path id="パス_447-15" data-name="パス 447" d="M-1137.779-386.945h27" transform="translate(-1511.224 737.335) rotate(90)" fill="none" stroke="#fff" stroke-width="1"/>
    </g>
    <g id="グループ_368-16" data-name="グループ 368" transform="translate(1551.779 438.445)">
      <path id="パス_446-16" data-name="パス 446" d="M-1137.779-386.945h27" fill="none" stroke="#fff" stroke-width="1"/>
      <path id="パス_447-16" data-name="パス 447" d="M-1137.779-386.945h27" transform="translate(-1511.224 737.335) rotate(90)" fill="none" stroke="#fff" stroke-width="1"/>
    </g>
    <g id="グループ_368-17" data-name="グループ 368" transform="translate(1620.779 438.445)">
      <path id="パス_446-17" data-name="パス 446" d="M-1137.779-386.945h27" fill="none" stroke="#fff" stroke-width="1"/>
      <path id="パス_447-17" data-name="パス 447" d="M-1137.779-386.945h27" transform="translate(-1511.224 737.335) rotate(90)" fill="none" stroke="#fff" stroke-width="1"/>
    </g>
    <g id="グループ_368-18" data-name="グループ 368" transform="translate(1689.779 438.445)">
      <path id="パス_446-18" data-name="パス 446" d="M-1137.779-386.945h27" fill="none" stroke="#fff" stroke-width="1"/>
      <path id="パス_447-18" data-name="パス 447" d="M-1137.779-386.945h27" transform="translate(-1511.224 737.335) rotate(90)" fill="none" stroke="#fff" stroke-width="1"/>
    </g>
    <g id="グループ_368-19" data-name="グループ 368" transform="translate(1137.779 476.445)">
      <path id="パス_446-19" data-name="パス 446" d="M-1137.779-386.945h27" fill="none" stroke="#fff" stroke-width="1"/>
      <path id="パス_447-19" data-name="パス 447" d="M-1137.779-386.945h27" transform="translate(-1511.224 737.335) rotate(90)" fill="none" stroke="#fff" stroke-width="1"/>
    </g>
    <g id="グループ_368-20" data-name="グループ 368" transform="translate(1206.779 476.445)">
      <path id="パス_446-20" data-name="パス 446" d="M-1137.779-386.945h27" fill="none" stroke="#fff" stroke-width="1"/>
      <path id="パス_447-20" data-name="パス 447" d="M-1137.779-386.945h27" transform="translate(-1511.224 737.335) rotate(90)" fill="none" stroke="#fff" stroke-width="1"/>
    </g>
    <g id="グループ_368-21" data-name="グループ 368" transform="translate(1275.779 476.445)">
      <path id="パス_446-21" data-name="パス 446" d="M-1137.779-386.945h27" fill="none" stroke="#fff" stroke-width="1"/>
      <path id="パス_447-21" data-name="パス 447" d="M-1137.779-386.945h27" transform="translate(-1511.224 737.335) rotate(90)" fill="none" stroke="#fff" stroke-width="1"/>
    </g>
    <g id="グループ_368-22" data-name="グループ 368" transform="translate(1344.779 476.445)">
      <path id="パス_446-22" data-name="パス 446" d="M-1137.779-386.945h27" fill="none" stroke="#fff" stroke-width="1"/>
      <path id="パス_447-22" data-name="パス 447" d="M-1137.779-386.945h27" transform="translate(-1511.224 737.335) rotate(90)" fill="none" stroke="#fff" stroke-width="1"/>
    </g>
    <g id="グループ_368-23" data-name="グループ 368" transform="translate(1413.779 476.445)">
      <path id="パス_446-23" data-name="パス 446" d="M-1137.779-386.945h27" fill="none" stroke="#fff" stroke-width="1"/>
      <path id="パス_447-23" data-name="パス 447" d="M-1137.779-386.945h27" transform="translate(-1511.224 737.335) rotate(90)" fill="none" stroke="#fff" stroke-width="1"/>
    </g>
    <g id="グループ_368-24" data-name="グループ 368" transform="translate(1482.779 476.445)">
      <path id="パス_446-24" data-name="パス 446" d="M-1137.779-386.945h27" fill="none" stroke="#fff" stroke-width="1"/>
      <path id="パス_447-24" data-name="パス 447" d="M-1137.779-386.945h27" transform="translate(-1511.224 737.335) rotate(90)" fill="none" stroke="#fff" stroke-width="1"/>
    </g>
    <g id="グループ_368-25" data-name="グループ 368" transform="translate(1551.779 476.445)">
      <path id="パス_446-25" data-name="パス 446" d="M-1137.779-386.945h27" fill="none" stroke="#fff" stroke-width="1"/>
      <path id="パス_447-25" data-name="パス 447" d="M-1137.779-386.945h27" transform="translate(-1511.224 737.335) rotate(90)" fill="none" stroke="#fff" stroke-width="1"/>
    </g>
    <g id="グループ_368-26" data-name="グループ 368" transform="translate(1620.779 476.445)">
      <path id="パス_446-26" data-name="パス 446" d="M-1137.779-386.945h27" fill="none" stroke="#fff" stroke-width="1"/>
      <path id="パス_447-26" data-name="パス 447" d="M-1137.779-386.945h27" transform="translate(-1511.224 737.335) rotate(90)" fill="none" stroke="#fff" stroke-width="1"/>
    </g>
    <g id="グループ_368-27" data-name="グループ 368" transform="translate(1689.779 476.445)">
      <path id="パス_446-27" data-name="パス 446" d="M-1137.779-386.945h27" fill="none" stroke="#fff" stroke-width="1"/>
      <path id="パス_447-27" data-name="パス 447" d="M-1137.779-386.945h27" transform="translate(-1511.224 737.335) rotate(90)" fill="none" stroke="#fff" stroke-width="1"/>
    </g>
    <g id="グループ_368-28" data-name="グループ 368" transform="translate(1137.779 514.445)">
      <path id="パス_446-28" data-name="パス 446" d="M-1137.779-386.945h27" fill="none" stroke="#fff" stroke-width="1"/>
      <path id="パス_447-28" data-name="パス 447" d="M-1137.779-386.945h27" transform="translate(-1511.224 737.335) rotate(90)" fill="none" stroke="#fff" stroke-width="1"/>
    </g>
    <g id="グループ_368-29" data-name="グループ 368" transform="translate(1206.779 514.445)">
      <path id="パス_446-29" data-name="パス 446" d="M-1137.779-386.945h27" fill="none" stroke="#fff" stroke-width="1"/>
      <path id="パス_447-29" data-name="パス 447" d="M-1137.779-386.945h27" transform="translate(-1511.224 737.335) rotate(90)" fill="none" stroke="#fff" stroke-width="1"/>
    </g>
    <g id="グループ_368-30" data-name="グループ 368" transform="translate(1275.779 514.445)">
      <path id="パス_446-30" data-name="パス 446" d="M-1137.779-386.945h27" fill="none" stroke="#fff" stroke-width="1"/>
      <path id="パス_447-30" data-name="パス 447" d="M-1137.779-386.945h27" transform="translate(-1511.224 737.335) rotate(90)" fill="none" stroke="#fff" stroke-width="1"/>
    </g>
    <g id="グループ_368-31" data-name="グループ 368" transform="translate(1344.779 514.445)">
      <path id="パス_446-31" data-name="パス 446" d="M-1137.779-386.945h27" fill="none" stroke="#fff" stroke-width="1"/>
      <path id="パス_447-31" data-name="パス 447" d="M-1137.779-386.945h27" transform="translate(-1511.224 737.335) rotate(90)" fill="none" stroke="#fff" stroke-width="1"/>
    </g>
    <g id="グループ_368-32" data-name="グループ 368" transform="translate(1413.779 514.445)">
      <path id="パス_446-32" data-name="パス 446" d="M-1137.779-386.945h27" fill="none" stroke="#fff" stroke-width="1"/>
      <path id="パス_447-32" data-name="パス 447" d="M-1137.779-386.945h27" transform="translate(-1511.224 737.335) rotate(90)" fill="none" stroke="#fff" stroke-width="1"/>
    </g>
    <g id="グループ_368-33" data-name="グループ 368" transform="translate(1482.779 514.445)">
      <path id="パス_446-33" data-name="パス 446" d="M-1137.779-386.945h27" fill="none" stroke="#fff" stroke-width="1"/>
      <path id="パス_447-33" data-name="パス 447" d="M-1137.779-386.945h27" transform="translate(-1511.224 737.335) rotate(90)" fill="none" stroke="#fff" stroke-width="1"/>
    </g>
    <g id="グループ_368-34" data-name="グループ 368" transform="translate(1551.779 514.445)">
      <path id="パス_446-34" data-name="パス 446" d="M-1137.779-386.945h27" fill="none" stroke="#fff" stroke-width="1"/>
      <path id="パス_447-34" data-name="パス 447" d="M-1137.779-386.945h27" transform="translate(-1511.224 737.335) rotate(90)" fill="none" stroke="#fff" stroke-width="1"/>
    </g>
    <g id="グループ_368-35" data-name="グループ 368" transform="translate(1620.779 514.445)">
      <path id="パス_446-35" data-name="パス 446" d="M-1137.779-386.945h27" fill="none" stroke="#fff" stroke-width="1"/>
      <path id="パス_447-35" data-name="パス 447" d="M-1137.779-386.945h27" transform="translate(-1511.224 737.335) rotate(90)" fill="none" stroke="#fff" stroke-width="1"/>
    </g>
    <g id="グループ_368-36" data-name="グループ 368" transform="translate(1689.779 514.445)">
      <path id="パス_446-36" data-name="パス 446" d="M-1137.779-386.945h27" fill="none" stroke="#fff" stroke-width="1"/>
      <path id="パス_447-36" data-name="パス 447" d="M-1137.779-386.945h27" transform="translate(-1511.224 737.335) rotate(90)" fill="none" stroke="#fff" stroke-width="1"/>
    </g>
    <g id="グループ_368-37" data-name="グループ 368" transform="translate(1137.779 552.445)">
      <path id="パス_446-37" data-name="パス 446" d="M-1137.779-386.945h27" fill="none" stroke="#fff" stroke-width="1"/>
      <path id="パス_447-37" data-name="パス 447" d="M-1137.779-386.945h27" transform="translate(-1511.224 737.335) rotate(90)" fill="none" stroke="#fff" stroke-width="1"/>
    </g>
    <g id="グループ_368-38" data-name="グループ 368" transform="translate(1206.779 552.445)">
      <path id="パス_446-38" data-name="パス 446" d="M-1137.779-386.945h27" fill="none" stroke="#fff" stroke-width="1"/>
      <path id="パス_447-38" data-name="パス 447" d="M-1137.779-386.945h27" transform="translate(-1511.224 737.335) rotate(90)" fill="none" stroke="#fff" stroke-width="1"/>
    </g>
    <g id="グループ_368-39" data-name="グループ 368" transform="translate(1275.779 552.445)">
      <path id="パス_446-39" data-name="パス 446" d="M-1137.779-386.945h27" fill="none" stroke="#fff" stroke-width="1"/>
      <path id="パス_447-39" data-name="パス 447" d="M-1137.779-386.945h27" transform="translate(-1511.224 737.335) rotate(90)" fill="none" stroke="#fff" stroke-width="1"/>
    </g>
    <g id="グループ_368-40" data-name="グループ 368" transform="translate(1344.779 552.445)">
      <path id="パス_446-40" data-name="パス 446" d="M-1137.779-386.945h27" fill="none" stroke="#fff" stroke-width="1"/>
      <path id="パス_447-40" data-name="パス 447" d="M-1137.779-386.945h27" transform="translate(-1511.224 737.335) rotate(90)" fill="none" stroke="#fff" stroke-width="1"/>
    </g>
    <g id="グループ_368-41" data-name="グループ 368" transform="translate(1413.779 552.445)">
      <path id="パス_446-41" data-name="パス 446" d="M-1137.779-386.945h27" fill="none" stroke="#fff" stroke-width="1"/>
      <path id="パス_447-41" data-name="パス 447" d="M-1137.779-386.945h27" transform="translate(-1511.224 737.335) rotate(90)" fill="none" stroke="#fff" stroke-width="1"/>
    </g>
    <g id="グループ_368-42" data-name="グループ 368" transform="translate(1482.779 552.445)">
      <path id="パス_446-42" data-name="パス 446" d="M-1137.779-386.945h27" fill="none" stroke="#fff" stroke-width="1"/>
      <path id="パス_447-42" data-name="パス 447" d="M-1137.779-386.945h27" transform="translate(-1511.224 737.335) rotate(90)" fill="none" stroke="#fff" stroke-width="1"/>
    </g>
    <g id="グループ_368-43" data-name="グループ 368" transform="translate(1551.779 552.445)">
      <path id="パス_446-43" data-name="パス 446" d="M-1137.779-386.945h27" fill="none" stroke="#fff" stroke-width="1"/>
      <path id="パス_447-43" data-name="パス 447" d="M-1137.779-386.945h27" transform="translate(-1511.224 737.335) rotate(90)" fill="none" stroke="#fff" stroke-width="1"/>
    </g>
    <g id="グループ_368-44" data-name="グループ 368" transform="translate(1620.779 552.445)">
      <path id="パス_446-44" data-name="パス 446" d="M-1137.779-386.945h27" fill="none" stroke="#fff" stroke-width="1"/>
      <path id="パス_447-44" data-name="パス 447" d="M-1137.779-386.945h27" transform="translate(-1511.224 737.335) rotate(90)" fill="none" stroke="#fff" stroke-width="1"/>
    </g>
    <g id="グループ_368-45" data-name="グループ 368" transform="translate(1689.779 552.445)">
      <path id="パス_446-45" data-name="パス 446" d="M-1137.779-386.945h27" fill="none" stroke="#fff" stroke-width="1"/>
      <path id="パス_447-45" data-name="パス 447" d="M-1137.779-386.945h27" transform="translate(-1511.224 737.335) rotate(90)" fill="none" stroke="#fff" stroke-width="1"/>
    </g>
    <g id="グループ_368-46" data-name="グループ 368" transform="translate(1137.779 590.445)">
      <path id="パス_446-46" data-name="パス 446" d="M-1137.779-386.945h27" fill="none" stroke="#fff" stroke-width="1"/>
      <path id="パス_447-46" data-name="パス 447" d="M-1137.779-386.945h27" transform="translate(-1511.224 737.335) rotate(90)" fill="none" stroke="#fff" stroke-width="1"/>
    </g>
    <g id="グループ_368-47" data-name="グループ 368" transform="translate(1206.779 590.445)">
      <path id="パス_446-47" data-name="パス 446" d="M-1137.779-386.945h27" fill="none" stroke="#fff" stroke-width="1"/>
      <path id="パス_447-47" data-name="パス 447" d="M-1137.779-386.945h27" transform="translate(-1511.224 737.335) rotate(90)" fill="none" stroke="#fff" stroke-width="1"/>
    </g>
    <g id="グループ_368-48" data-name="グループ 368" transform="translate(1275.779 590.445)">
      <path id="パス_446-48" data-name="パス 446" d="M-1137.779-386.945h27" fill="none" stroke="#fff" stroke-width="1"/>
      <path id="パス_447-48" data-name="パス 447" d="M-1137.779-386.945h27" transform="translate(-1511.224 737.335) rotate(90)" fill="none" stroke="#fff" stroke-width="1"/>
    </g>
    <g id="グループ_368-49" data-name="グループ 368" transform="translate(1344.779 590.445)">
      <path id="パス_446-49" data-name="パス 446" d="M-1137.779-386.945h27" fill="none" stroke="#fff" stroke-width="1"/>
      <path id="パス_447-49" data-name="パス 447" d="M-1137.779-386.945h27" transform="translate(-1511.224 737.335) rotate(90)" fill="none" stroke="#fff" stroke-width="1"/>
    </g>
    <g id="グループ_368-50" data-name="グループ 368" transform="translate(1413.779 590.445)">
      <path id="パス_446-50" data-name="パス 446" d="M-1137.779-386.945h27" fill="none" stroke="#fff" stroke-width="1"/>
      <path id="パス_447-50" data-name="パス 447" d="M-1137.779-386.945h27" transform="translate(-1511.224 737.335) rotate(90)" fill="none" stroke="#fff" stroke-width="1"/>
    </g>
    <g id="グループ_368-51" data-name="グループ 368" transform="translate(1482.779 590.445)">
      <path id="パス_446-51" data-name="パス 446" d="M-1137.779-386.945h27" fill="none" stroke="#fff" stroke-width="1"/>
      <path id="パス_447-51" data-name="パス 447" d="M-1137.779-386.945h27" transform="translate(-1511.224 737.335) rotate(90)" fill="none" stroke="#fff" stroke-width="1"/>
    </g>
    <g id="グループ_368-52" data-name="グループ 368" transform="translate(1551.779 590.445)">
      <path id="パス_446-52" data-name="パス 446" d="M-1137.779-386.945h27" fill="none" stroke="#fff" stroke-width="1"/>
      <path id="パス_447-52" data-name="パス 447" d="M-1137.779-386.945h27" transform="translate(-1511.224 737.335) rotate(90)" fill="none" stroke="#fff" stroke-width="1"/>
    </g>
    <g id="グループ_368-53" data-name="グループ 368" transform="translate(1620.779 590.445)">
      <path id="パス_446-53" data-name="パス 446" d="M-1137.779-386.945h27" fill="none" stroke="#fff" stroke-width="1"/>
      <path id="パス_447-53" data-name="パス 447" d="M-1137.779-386.945h27" transform="translate(-1511.224 737.335) rotate(90)" fill="none" stroke="#fff" stroke-width="1"/>
    </g>
    <g id="グループ_368-54" data-name="グループ 368" transform="translate(1689.779 590.445)">
      <path id="パス_446-54" data-name="パス 446" d="M-1137.779-386.945h27" fill="none" stroke="#fff" stroke-width="1"/>
      <path id="パス_447-54" data-name="パス 447" d="M-1137.779-386.945h27" transform="translate(-1511.224 737.335) rotate(90)" fill="none" stroke="#fff" stroke-width="1"/>
    </g>
  </g>
</svg>
